<svg width="847" height="496" viewBox="0 0 847 496" fill="none" xmlns="http://www.w3.org/2000/svg">
<path d="M707.642 353.991C694.962 349.811 687.582 341.931 687.582 332.331C687.702 327.411 687.832 327.041 689.302 329.011C690.162 330.121 691.762 331.101 692.752 331.101C693.862 331.101 695.332 331.841 696.072 332.821C698.292 335.401 708.382 339.341 715.272 340.331C731.762 342.421 748.382 328.511 750.102 311.161C750.352 307.961 751.082 305.251 751.702 305.251C752.322 305.251 752.442 304.391 751.952 303.281C751.462 301.801 751.952 301.431 754.172 301.801C757.862 302.291 758.722 305.371 758.852 319.521C758.972 329.121 758.602 331.461 755.772 337.001C752.322 343.891 747.892 348.321 740.022 352.261C733.622 355.581 715.402 356.571 707.652 353.981L707.642 353.991Z" fill="#AADBD7"/>
<path d="M803.273 241.872C803.273 227.352 803.393 226.492 805.733 226.492C808.073 226.492 808.193 227.352 808.193 241.872C808.193 256.392 808.073 257.252 805.733 257.252C803.393 257.252 803.273 256.392 803.273 241.872Z" fill="#AADBD7"/>
<path d="M803.272 187.102C803.272 160.272 803.522 155.102 804.992 155.102C807.822 155.102 808.192 160.152 807.942 190.552C807.822 217.382 807.692 219.102 805.482 219.102C803.392 219.102 803.262 217.252 803.262 187.102H803.272Z" fill="#AADBD7"/>
<path d="M650.41 413.69C629.86 407.29 630.72 408.27 633.55 395.23C635.03 387.97 632.44 388.71 666.04 386.49C716.62 383.04 777.3 372.58 804.13 362.49C808.56 360.77 814.59 359.41 817.55 359.41C822.97 359.41 822.97 359.41 822.97 363.72C822.97 366.06 821.62 370.98 820.02 374.55C817.19 381.07 816.94 381.2 811.4 381.81C807.95 382.3 803.65 383.9 800.69 385.99C796.26 389.07 794.04 389.56 784.32 390.17C778.17 390.54 771.77 391.65 770.04 392.51C766.1 394.73 752.93 405.19 749.86 408.51C746.04 412.69 738.66 411.96 727.71 406.29C717 400.63 709.49 399.15 701.37 401.24C696.57 402.35 694.23 404.07 687.83 411.21C680.2 419.46 679.83 419.7 674.29 419.58C671.09 419.46 660.38 416.87 650.41 413.67V413.69Z" fill="#FBDD3E"/>
<path d="M176.81 405.322C168.93 403.972 154.04 398.182 147.15 393.632C127.46 380.952 115.27 360.402 115.27 340.092C115.27 331.112 117.85 331.472 121.42 341.072C129.54 362.492 150.59 383.042 180.62 398.792L194.65 406.172L187.27 405.922C183.21 405.922 178.53 405.552 176.81 405.302V405.322Z" fill="#FBDD3E"/>
<path d="M197.728 381.07C189.238 377.5 179.878 373.44 176.808 371.84C160.188 363.22 145.058 350.18 139.638 339.72C136.438 333.44 135.088 319.17 137.298 313.63C138.408 310.68 139.268 310.18 143.448 310.18C147.998 310.18 148.248 310.3 149.598 315.6C154.518 335.54 184.678 353.51 239.318 369.26C247.938 371.72 248.178 371.97 248.178 375.78C248.178 379.72 248.058 379.72 235.498 383.78C228.608 385.87 220.728 387.72 218.018 387.6C215.068 387.48 206.698 384.89 197.708 381.08L197.728 381.07Z" fill="#FBDD3E"/>
<path d="M259.637 336.891L248.188 334.431V330.491C248.188 324.831 251.137 322.861 264.307 319.541C292.987 312.281 346.767 309.451 434.647 310.561C467.137 311.051 495.817 311.791 498.397 312.161C502.577 312.901 502.947 313.271 502.947 317.081C502.947 319.421 502.697 321.261 502.457 321.261C502.207 321.261 497.537 322.121 492.237 323.111C485.097 324.461 473.407 324.961 446.327 324.961C403.247 325.081 347.747 326.931 337.407 328.651C333.347 329.391 325.097 330.501 318.947 331.111C308.367 332.341 291.748 336.281 287.318 338.621C283.868 340.341 271.938 339.731 259.628 336.901L259.637 336.891Z" fill="#FBDD3E"/>
<path d="M77.7286 258.241C68.9886 255.161 64.8086 248.021 64.8086 236.091C64.8086 221.811 73.4286 210.491 84.1286 210.491H89.7886L88.9286 219.111C88.1886 227.231 88.3086 227.971 91.1486 230.801C103.089 242.741 119.089 216.031 133.729 159.661C135.949 151.041 137.419 143.661 137.049 143.171C134.829 141.081 126.219 145.631 120.429 152.031C115.139 157.811 113.539 158.801 109.849 158.801H105.419V152.771C105.419 141.201 109.849 133.941 120.439 128.521C128.069 124.581 144.689 121.871 160.319 121.871H173.119V139.471C173.119 156.951 174.839 188.581 176.319 197.191L177.059 201.871L186.289 187.351C198.599 168.031 207.459 156.581 219.029 145.011C235.889 128.391 250.169 120.641 264.199 120.641C271.579 120.641 271.579 120.641 271.579 124.331C271.579 126.551 269.859 130.361 267.269 133.931C256.069 149.681 238.959 209.131 237.489 237.931L236.749 252.331H222.839H208.809V241.381C208.809 235.351 209.669 225.871 210.779 220.211C212.379 211.231 219.399 182.551 221.729 175.411C224.439 166.921 203.759 198.431 188.499 225.871C183.209 235.351 177.789 244.331 176.559 245.811C174.839 247.661 172.009 248.641 166.709 249.261C162.649 249.751 158.829 249.631 158.339 249.141C156.619 247.421 149.719 207.541 148.859 194.741L148.119 183.421L142.209 201.141C131.379 234.121 118.949 252.831 104.919 257.631C98.1486 259.971 83.4986 260.211 77.7186 258.251L77.7286 258.241Z" fill="#FBDD3E"/>
<path d="M571.267 252.463C560.927 247.783 560.807 240.033 570.527 210.003C586.407 161.263 589.357 151.913 589.607 148.343C589.857 146.373 590.097 144.283 590.227 143.913C590.477 142.563 606.967 138.863 610.167 139.363C615.457 140.103 614.597 146.253 605.857 171.733C601.427 184.533 597.977 195.243 598.347 195.483C598.597 195.733 600.067 195.113 601.667 194.003C603.517 192.653 607.207 192.033 613.237 192.033C621.117 192.033 622.347 192.403 625.177 195.233C629.117 199.173 630.227 204.343 629.487 215.543C628.257 231.293 619.267 244.343 604.747 251.233C598.097 254.313 595.637 254.803 586.657 254.803C579.147 254.803 574.717 254.063 571.277 252.463H571.267ZM594.407 236.463C601.667 230.063 609.667 212.093 606.587 209.013C605.477 207.903 603.757 209.013 599.077 213.933C592.797 220.583 583.567 236.703 584.797 238.793C586.147 241.013 590.217 240.023 594.397 236.453L594.407 236.463Z" fill="#FBDD3E"/>
<path d="M326.59 355.59C317.85 352.39 296.81 345.87 283.02 342.17C279.08 341.19 277.73 340.2 277.73 338.48C277.73 337.13 278.59 336.02 279.58 336.02C280.56 336.02 282.41 335.53 283.64 334.91C288.07 332.57 304.69 328.63 315.27 327.4C321.42 326.78 329.67 325.68 333.73 324.94C344.07 323.22 399.58 321.37 442.41 321.25C476.38 321.25 478.35 321.37 478.35 323.47C478.35 325.19 476.26 326.3 469.49 328.39C434.66 338.61 413.24 345.5 402.66 349.81C391.95 354.12 387.77 355.1 370.66 357.07C343.83 360.15 338.29 360.02 326.6 355.59H326.59Z" fill="#17A6CD"/>
<path d="M622.101 384.019C618.281 381.679 590.841 374.419 569.421 369.869C525.601 360.759 483.881 355.839 440.561 354.849L409.421 354.109V350.169C409.421 347.949 410.161 345.619 411.021 344.879C413.241 343.029 444.251 333.559 448.191 333.559C450.041 333.559 453.241 332.699 455.331 331.709C461.361 328.999 484.131 322.969 508.501 317.799L530.531 312.999L505.911 312.259C492.491 311.889 466.771 310.909 448.801 310.039C413.851 308.559 345.291 309.179 320.181 311.389C301.231 312.989 282.271 315.819 269.231 318.899C256.801 321.729 234.401 328.499 233.051 329.849C232.431 330.339 235.511 331.449 239.821 332.189C256.441 335.509 294.961 344.739 307.021 348.559L319.571 352.379V356.559V360.619H312.551C297.901 360.619 226.891 349.419 202.031 343.269C178.771 337.489 160.681 330.099 155.141 324.069C152.801 321.489 152.191 319.519 152.191 313.849C152.191 307.939 152.681 306.469 155.511 303.759C176.191 284.439 266.891 275.449 375.571 281.979C420.371 284.559 481.421 290.959 503.691 295.399C518.581 298.229 550.091 301.549 562.771 301.549C570.771 301.549 571.881 301.799 571.881 303.889C571.881 305.859 572.501 305.979 578.401 305.119C604.001 301.059 654.341 296.629 676.251 296.629H688.801V300.689C688.801 302.779 687.941 308.199 686.831 312.629C684.371 322.109 685.351 326.779 691.511 337.249C696.311 345.129 704.311 351.159 714.281 353.989C719.821 355.589 722.031 355.709 727.331 354.479C739.641 351.649 750.471 342.789 755.511 331.459C758.091 325.549 758.591 316.319 756.621 311.029C755.881 309.059 755.271 305.249 755.271 302.539V297.489L768.561 298.229C775.821 298.599 786.041 299.579 791.331 300.319L800.811 301.799V318.289C800.811 332.439 801.061 334.779 802.781 334.779C804.381 334.779 804.501 332.929 803.761 320.009L802.901 305.239H808.931C815.211 305.239 824.561 308.929 831.451 313.979C840.311 320.499 841.421 337.359 833.421 346.839C822.471 359.889 775.081 372.319 708.501 379.579C663.451 384.629 626.411 386.469 622.101 384.009V384.019Z" fill="#4AA447"/>
<path d="M796.871 204.579C795.761 200.519 781.491 199.289 772.621 202.489C764.371 205.319 755.271 206.179 753.911 204.209C753.291 203.229 752.801 195.719 752.801 187.349V172.209L757.481 170.239C759.941 169.259 767.331 165.809 773.731 162.609C780.131 159.409 788.011 155.719 791.331 154.489C794.531 153.259 797.111 151.539 797.111 150.669C797.111 149.689 798.221 148.949 799.571 148.949C802.031 148.949 802.031 149.569 801.791 177.499C801.421 202.729 801.171 206.179 799.451 206.549C798.341 206.799 797.111 205.929 796.871 204.579Z" fill="#D0262A"/>
<path d="M178.04 494.791C178.04 493.561 180.26 483.221 182.96 471.901C185.54 460.581 187.51 450.981 187.27 450.481C187.02 450.111 178.78 444.821 168.93 438.911C158.96 433.001 150.71 427.591 150.35 426.971C148.87 424.751 175.7 414.291 198.84 408.141C204.62 406.661 209.55 404.691 209.79 403.961C210.04 403.221 202.77 399.041 193.67 394.731C160.19 378.731 144.19 365.311 133.98 344.761C130.04 336.761 129.55 334.541 129.43 326.301C129.43 313.991 131.4 308.951 139.15 301.071C152.69 287.161 176.44 279.531 224.2 273.751C249.8 270.671 329.8 270.551 357.12 273.631C406.1 279.171 479.46 290.251 510.35 296.651C514.53 297.631 514.66 297.631 510.97 297.761C506.54 297.881 476.26 295.181 445.12 291.851C360.69 282.741 286.6 281.271 230.97 287.421C184.45 292.591 155.89 302.681 155.89 313.881C155.89 328.161 199.09 341.571 282.17 353.141C316.14 357.941 319.83 357.941 306.17 353.141C297.19 350.061 284.39 346.861 229.99 334.311C223.71 332.961 218.54 331.231 218.54 330.491C218.42 329.871 225.8 326.921 234.91 323.971C277.25 310.311 302.11 306.991 371.28 305.631C397.74 305.141 425.93 305.511 454.36 306.611C478.11 307.591 506.91 308.331 518.36 308.211C537.56 308.211 541.13 307.841 560.82 303.661C583.84 298.861 604.39 292.711 607.96 289.511C609.07 288.531 611.04 287.541 612.27 287.421C613.38 287.421 615.96 286.311 617.81 285.081C620.64 283.111 621.75 282.991 624.58 284.221C627.29 285.571 628.03 285.451 629.38 283.601C630.24 282.371 630.98 280.891 630.98 280.281C630.98 279.051 640.21 279.661 643.66 281.141C645.38 282.001 646.12 281.391 647.11 278.311C647.85 276.221 648.96 274.491 649.45 274.491C650.07 274.491 650.93 273.381 651.3 272.031C651.92 270.061 653.15 269.571 657.45 269.571C660.4 269.571 663.23 270.191 663.6 270.801C664.09 271.661 666.55 271.781 669.63 271.421C674.55 270.681 675.17 270.801 678.12 274.621L681.32 278.681L686.24 274.741C692.02 270.061 698.79 269.321 701.38 273.141C702.36 274.491 704.46 275.481 706.06 275.481C707.78 275.481 710.37 275.851 711.84 276.341C713.81 276.961 714.67 276.591 715.29 274.621C715.66 273.271 717.14 271.791 718.49 271.421C719.72 270.931 720.83 269.821 720.83 268.841C720.83 267.861 722.31 266.381 724.03 265.641C726.61 264.411 727.85 264.531 731.29 266.381C734.24 267.981 736.71 268.471 739.91 267.861C744.83 266.881 750.37 269.461 750.37 272.661C750.37 275.741 754.31 276.971 758.12 274.881C761.57 273.161 762.06 273.281 765.38 275.741C768.09 277.711 769.44 278.081 770.43 277.091C772.77 274.751 780.89 275.491 782.37 278.201C783.11 279.551 784.71 280.661 786.06 280.661C787.29 280.661 789.88 281.281 791.6 282.141C793.45 283.001 795.17 283.121 795.78 282.391C796.4 281.771 797.26 250.511 797.63 212.971L798.25 144.661L801.57 144.291C803.29 144.041 805.26 144.291 805.75 144.911C806.37 145.401 806.86 165.341 806.98 188.971C807.1 212.721 807.6 244.601 807.96 260.111L808.58 288.051H811.53C815.1 288.051 820.51 293.591 820.51 297.161C820.51 299.131 821.99 300.611 826.05 302.581C839.1 308.981 847.1 321.041 846.11 332.861C845.74 336.681 843.28 344.431 839.83 352.181C836.63 359.441 834.05 366.461 834.05 367.931C834.05 369.411 832.08 373.351 829.74 376.791C827.03 380.851 825.43 384.541 825.43 387.131C825.43 389.351 824.69 391.681 823.95 392.301C823.09 393.041 817.8 394.151 812.26 394.881C803.52 395.861 801.43 396.601 797.74 399.931C793.8 403.251 792.45 403.751 785.8 403.751C776.2 403.751 771.28 406.091 757.37 417.411C744.82 427.631 745.68 427.631 727.09 419.501C713.8 413.721 705.18 412.981 698.29 416.921C692.38 420.371 691.27 423.071 694.72 425.781L697.67 427.871L679.09 438.701C668.87 444.611 660.51 450.151 660.51 450.881C660.51 451.741 662.97 461.831 666.05 473.281C669.13 484.851 671.59 494.821 671.59 495.681C671.59 496.541 664.57 494.701 653.5 490.881C627.28 482.141 573.13 467.741 565.87 467.741C562.92 467.741 562.79 467.001 565.01 457.521C566.98 449.401 568.7 450.631 550.98 447.431C507.41 439.681 475.9 436.971 432.21 437.091C398.24 437.091 389.75 437.461 352.21 440.661C334.24 442.141 290.92 448.661 286.49 450.511C283.91 451.621 283.78 452.361 284.64 456.421C286.73 467.001 287.22 466.511 272.21 469.841C264.83 471.561 257.81 473.661 256.7 474.641C255.72 475.621 253.01 476.361 250.92 476.361C248.83 476.361 246.74 476.981 246.37 477.591C246 478.331 244.65 478.821 243.42 478.821C241.08 478.821 237.39 479.801 220.4 484.851C215.6 486.331 210.92 487.431 209.82 487.431C208.71 487.431 201.2 489.521 192.96 492.231C179.67 496.541 178.07 496.781 178.07 494.811L178.04 494.791ZM362.41 424.641C363.39 424.641 363.89 422.421 363.89 417.871C363.89 414.181 363.64 411.101 363.4 411.101C363.15 411.101 360.94 411.961 358.48 412.951C354.42 414.671 351.46 415.411 338.66 418.001C335.34 418.741 335.95 417.881 344.94 408.521C356.63 396.461 357.74 394.741 357.74 387.351C357.74 383.041 357 381.201 354.42 378.611C350.24 374.431 347.04 373.691 336.7 374.551C330.18 375.171 326.98 376.031 323.04 378.731C314.3 384.641 313.56 392.761 321.69 393.621C325.14 393.991 325.51 393.621 326.24 389.071C327.1 383.651 329.56 381.561 335.35 381.561C340.27 381.561 342.37 384.511 342.24 391.281C342.12 398.541 340.15 402.111 329.56 414.911C321.68 424.261 319.71 427.961 321.44 429.801C321.81 430.051 330.79 429.061 341.38 427.581C352.09 425.981 361.56 424.631 362.43 424.631L362.41 424.641ZM521.43 425.621C528.81 421.801 531.65 417.501 531.77 410.111C531.89 402.731 529.68 398.291 524.14 394.851C520.57 392.631 518.72 392.391 511.46 393.001C506.78 393.371 502.97 393.251 502.97 392.751C502.97 390.531 508.39 385.001 512.82 382.781C515.4 381.431 519.84 380.071 522.54 379.581C526.85 378.841 527.59 378.351 527.59 375.891C527.59 372.441 527.47 372.441 514.54 374.291C502.85 375.891 497.68 378.351 491.03 385.611C477.86 399.891 482.29 420.691 499.89 426.841C506.41 429.061 515.52 428.561 521.43 425.611V425.621ZM410.91 418.971C417.31 414.541 420.51 408.261 421.37 399.031C422.6 385.861 417.43 374.661 407.95 369.741C402.41 366.791 387.77 367.891 382.6 371.461C376.82 375.641 372.51 385.491 372.51 394.481C372.51 403.341 374.11 408.881 378.42 414.661C385.44 424.011 400.82 426.111 410.91 418.971ZM472.69 420.081C472.94 418.851 473.55 416.141 474.04 414.171L474.78 410.481L460.87 410.971C447.82 411.341 447.09 411.221 448.81 409.251C449.79 408.021 454.1 404.941 458.29 402.231C472.07 393.491 477.12 384.881 472.94 376.751C469.99 371.091 462.97 368.011 452.63 368.011C447.95 368.011 442.66 368.501 441.06 369.121C433.18 372.201 429.98 381.551 435.77 384.261C439.46 385.861 442.66 384.881 442.66 381.921C442.66 377.611 446.23 374.171 450.66 374.171C459.15 374.171 461.12 384.511 454.35 393.371C451.4 397.311 441.8 405.801 433.8 411.711C431.95 413.061 430.23 415.531 430.11 417.251C429.74 420.331 429.86 420.331 440.82 421.071C465.44 422.551 471.96 422.301 472.7 420.091L472.69 420.081ZM684.14 407.531C693.25 397.561 698.17 395.591 712.45 396.581C719.59 397.201 723.03 398.181 731.53 402.611C738.79 406.301 742.36 407.531 743.47 406.791C744.33 406.051 748.89 402.361 753.56 398.421C765.62 388.201 767.71 387.221 780.64 386.481C790.36 385.861 792.58 385.371 797.01 382.301C799.96 380.211 804.27 378.611 807.72 378.121C813.26 377.501 813.5 377.381 816.46 370.741C818.06 367.051 819.04 363.721 818.68 363.361C818.31 362.871 812.9 364.341 806.62 366.561C775.36 377.271 720.71 386.741 669.76 390.191C636.28 392.411 638.74 391.791 637.27 398.561C636.65 401.761 636.16 404.341 636.29 404.471C637.64 405.211 672.72 415.791 674.32 415.921C675.43 415.921 679.86 412.231 684.17 407.551L684.14 407.531ZM232.32 379.841L245.12 375.661L235.89 373.081C212.14 366.191 198.47 361.261 184.81 354.501C162.29 343.421 148.87 331.361 145.92 319.301C144.32 313.021 142.84 312.411 141 317.331C135.34 331.851 152.32 353.641 180.51 368.161C187.16 371.611 216.2 383.791 218.17 383.911C218.91 384.031 225.31 382.191 232.32 379.851V379.841ZM656.81 380.331C743.7 374.791 816.32 359.161 829.73 343.161C834.41 337.621 835.76 331.101 833.42 325.191C831.2 319.771 827.14 316.331 817.67 311.901C807.33 307.101 807.58 306.851 807.95 323.721L808.32 338.491H802.78H797.12V322.001V305.511L787.64 304.161C775.21 302.311 758.96 300.961 758.96 301.941C758.96 302.311 759.82 306.001 760.93 310.191C769.18 342.561 735.33 369.641 704.44 355.361C695.33 351.181 691.02 347.111 686.35 338.381C681.3 328.901 680.2 318.691 683.15 308.721C684.26 304.901 685.12 301.461 685.12 300.841C685.12 298.751 635.4 302.071 598.97 306.621C549.25 312.771 475.03 328.161 459.03 335.421C456.94 336.401 453.74 337.271 451.89 337.271C447.46 337.271 416.69 346.871 414.6 348.841C413.25 350.191 419.03 350.561 444.14 351.181C487.59 352.161 529.31 357.091 573.12 366.201C594.54 370.751 621.98 378.021 625.8 380.351C628.51 381.831 632.2 381.831 656.82 380.351L656.81 380.331ZM366.96 353.381C384.07 351.411 388.25 350.431 398.96 346.121C409.79 341.691 434.41 333.941 467.27 324.341C475.52 321.881 487.58 319.291 499.15 317.451C499.52 317.331 497.92 316.831 495.58 316.221C493.24 315.731 466.04 314.871 435.27 314.371C375.21 313.391 322.78 314.991 294.96 318.431C275.64 320.771 257.05 325.451 253.85 328.651C252.5 330.001 251.88 331.111 252.62 331.111C260 331.111 311.33 344.891 330.04 351.791C341.86 356.221 341.98 356.221 366.96 353.391V353.381ZM736.56 348.461C744.31 344.521 748.74 340.091 752.31 332.831C755.14 326.921 755.51 325.081 755.02 317.201C754.04 301.941 745.79 290.371 732.87 286.061C727.95 284.461 725.61 284.341 717.49 285.571C712.2 286.431 706.41 287.791 704.69 288.771C699.27 291.481 693.49 298.121 690.29 305.141C687.83 310.561 687.34 313.021 687.83 319.291C688.69 329.011 693.74 339.841 699.52 344.271C709.74 352.151 725.86 353.871 736.57 348.451L736.56 348.461Z" fill="#085036"/>
<path d="M504.68 422.182C501.23 420.832 498.77 413.442 499.63 407.162C500.49 400.392 502.46 398.542 508.37 399.042C512.55 399.292 513.66 400.022 515.02 402.862C517.36 407.782 515.88 416.772 512.19 420.462C508.99 423.662 508.5 423.782 504.68 422.182Z" fill="#085036"/>
<path d="M394.28 416.021C389.97 412.701 388.13 403.591 388.62 389.311C388.99 379.461 389.48 377.491 391.82 375.161C394.16 372.941 395.14 372.701 397.97 373.681C402.15 375.161 404 380.081 405.23 393.001C406.21 404.451 404.98 413.061 401.91 416.141C398.96 419.091 398.22 419.091 394.28 416.021Z" fill="#085036"/>
<path d="M11.6412 400.02C4.38118 399.16 2.53119 397.56 4.62119 394.11C5.85119 392.14 5.97119 389.8 4.99119 384.14C3.64119 376.14 4.37117 374.17 8.56117 374.17C10.4112 374.17 10.7812 373.55 10.1612 371.46C9.79117 369.86 9.05119 366.41 8.68119 363.58C7.94119 359.15 8.31118 358.41 11.1412 356.56C14.7112 354.22 15.4512 349.54 12.6212 347.21C8.93119 344.13 5.73117 334.29 2.53117 316.93C0.811167 307.08 -0.298824 298.22 0.0711758 297.11C0.561176 295.63 2.16117 295.26 6.10117 295.63L11.2712 296L11.8912 286.77C12.7512 274.09 16.3212 267.82 23.8312 265.97C31.0912 264.12 31.9512 261.42 31.2112 244.68L30.5912 231.63L35.1412 228.68C41.1712 224.74 41.4212 221.42 36.0012 213.66C31.8212 207.63 31.5712 206.64 31.5712 197.66C31.5712 191.14 32.1912 187.32 33.5412 185.23C35.1412 182.89 35.2612 180.55 34.6512 174.89C33.9112 168.37 34.1612 167.01 36.3712 164.18C37.8512 162.33 38.9512 159.13 38.9512 156.8C38.9512 153.97 40.1812 151.38 42.7712 148.31C46.5912 144 46.8312 143.88 54.5912 144.25C61.4812 144.62 62.8412 144.25 64.3112 142.03C65.7912 139.94 65.6612 138.95 63.5712 134.77C62.2212 132.06 61.1112 129.35 61.1112 128.74C61.1112 128 64.0612 124.56 67.6312 120.86L74.0312 114.34L74.4012 100.56C74.8912 85.67 76.1212 82.47 81.5412 82.47C86.4612 82.47 90.6512 80.25 90.6512 77.55C90.6512 76.2 92.6212 72.5 95.0812 69.3C101.231 61.3 103.331 55.88 102.461 50.47C101.841 46.41 102.341 45.3 107.261 39.52C110.341 35.95 113.411 31.89 114.151 30.66C115.011 28.94 116.731 28.32 120.181 28.32C125.471 28.32 126.091 27.7 128.801 19.7L130.651 14.16H140.371H150.091L151.941 8.62C152.921 5.54 153.911 2.34001 154.161 1.60001C154.411 0.740006 156.131 0 158.101 0C160.811 0 162.411 1.22999 165.481 5.53999C168.681 10.09 170.401 11.32 176.061 12.92C180.861 14.4 183.941 16.24 187.141 19.69C191.451 24.49 191.451 24.61 191.201 34.71C191.081 42.59 191.571 45.91 193.291 49.11C195.141 52.68 195.381 54.89 194.641 64C193.901 73.48 194.151 75.57 196.361 80.62C200.541 90.1 199.681 92.56 191.561 94.04C186.391 95.02 185.531 95.02 182.331 94.53C179.991 94.16 179.871 94.78 180.361 102.16C180.611 106.59 181.221 111.27 181.711 112.74C182.331 114.09 182.451 130.96 182.081 150.28L181.591 185.23L186.761 177.23C205.101 149.17 235.871 122.21 254.331 118.03C256.671 117.41 262.581 115.94 267.381 114.71C272.181 113.36 279.321 111.88 283.261 111.39L290.521 110.53L288.431 113.73C287.321 115.45 285.601 118.16 284.611 119.76C278.951 128.38 252.611 197.67 247.321 217.73C243.141 233.61 243.631 243.33 249.041 252.19L252.981 258.47H223.561C207.311 258.47 194.021 258.1 194.021 257.61C194.021 256.99 195.131 249.98 196.481 241.86C199.431 224.38 199.311 225.24 197.461 225.24C196.601 225.36 191.921 231.76 187.241 239.76C179.361 252.81 178.011 254.28 173.701 255.76C168.531 257.48 156.221 260.07 147.731 261.42L142.681 262.16L144.901 255.64C147.241 249.12 147.851 236.07 146.501 227.46C145.391 221.18 142.441 221.43 139.241 227.95C137.891 230.78 134.191 237.3 130.871 242.35C126.191 249.86 125.211 252.44 125.821 255.15C126.191 257.12 126.931 261.67 127.421 265.37C128.041 269.55 129.391 273.12 130.991 274.85C134.561 278.67 134.441 279.65 130.011 282.23C125.211 285.06 121.151 290.97 121.641 294.41C121.891 296.63 121.391 297.12 118.321 297.24C115.121 297.24 114.631 297.73 113.641 302.41C112.291 309.3 110.191 310.9 106.131 308.32C102.681 305.98 103.051 305.74 99.8512 314.84C99.6012 315.58 97.5112 316.32 95.3012 316.32C93.0812 316.32 90.6212 316.81 89.8812 317.3C88.4012 318.16 87.1712 323.58 85.8212 334.78C85.3312 338.47 84.3412 342.78 83.4812 344.26C82.6212 345.74 82.0012 349.06 82.0012 351.64C82.0012 354.35 80.0312 360.87 77.5712 366.78C75.1112 372.56 72.6512 379.58 72.1512 382.53C71.0412 389.55 69.2012 391.27 66.0012 388.31C63.9112 386.46 62.3112 386.22 54.6812 386.96C41.1412 388.19 38.1912 389.18 38.6812 392.5C38.9312 394.1 38.1912 396.32 36.9612 397.67C35.1112 399.76 33.7612 400.01 27.6112 399.27C23.6712 398.78 19.7312 399.02 18.9912 399.64C18.1312 400.26 14.8112 400.38 11.6112 400.01L11.6412 400.02ZM101.241 253.93C110.591 250.73 119.581 240.88 127.331 225.5C132.871 214.42 141.981 188.7 146.041 172.7C146.781 169.62 148.131 167.41 148.991 167.41C150.341 167.41 150.961 170.49 151.571 179.47C152.551 194.49 155.261 214.42 158.711 232.02L161.421 245.56L165.731 245.19C168.071 244.94 171.021 243.84 172.131 242.85C173.361 241.74 178.781 232.76 184.311 222.91C204.251 187.22 225.911 156.33 231.081 156.33C233.301 156.33 233.301 156.7 230.341 164.58C222.341 185.87 212.491 228.09 212.491 241.38V248.64H222.831H233.051L233.791 234.24C235.271 205.32 252.371 145.99 263.701 130.12L268.131 123.97L262.351 124.59C249.301 126.07 230.601 138.99 213.981 157.94C205.001 168.03 185.181 197.45 179.401 209.14C177.181 213.32 175.221 216.65 174.851 216.4C173.371 214.8 170.541 180.22 169.801 154.86L169.061 125.57H160.201C140.631 125.57 122.421 130.86 115.031 138.74C111.831 142.06 107.891 153.02 109.371 154.49C109.741 154.98 113.311 152.03 117.251 147.97C123.401 141.69 125.501 140.34 131.031 139.23C139.031 137.63 143.581 137.51 143.581 138.98C143.581 141.44 133.491 178.49 129.301 191.41C117.481 227.84 105.051 242.98 91.7612 237.56C85.7312 234.98 84.1312 231.28 84.8712 222.18C85.6112 212.83 84.5012 212.09 77.8512 217.87C72.8012 222.42 68.5012 230.67 68.5012 236.09C68.5012 251.47 83.8812 259.84 101.241 253.94V253.93Z" fill="#085036"/>
<path d="M580.382 258.489C573.242 257.259 567.952 254.549 564.502 250.239C559.702 244.209 561.052 238.549 586.782 160.019C589.612 151.039 589.862 149.309 588.382 148.199C585.922 146.229 587.272 143.519 592.562 139.829C598.962 135.399 605.732 133.309 616.812 132.319C625.922 131.459 626.412 131.459 625.552 133.669C623.462 138.839 607.582 186.589 607.582 187.449C607.582 188.069 609.672 188.189 612.382 187.699C614.962 187.329 619.402 187.449 622.102 188.189C646.102 194.709 636.252 239.019 607.702 253.539C601.422 256.619 598.472 257.479 588.502 258.959C587.152 259.209 583.452 258.959 580.382 258.469V258.489ZM601.062 247.539C610.292 243.109 617.312 236.339 621.492 227.599C627.402 215.539 627.402 204.829 621.492 198.919C614.722 192.029 600.072 196.949 590.842 209.259L587.642 213.569L588.502 209.259C588.992 206.919 594.042 191.409 599.702 175.039C605.362 158.549 609.792 144.639 609.422 144.019C609.052 143.529 605.482 143.899 601.422 144.879C594.282 146.729 594.042 146.969 592.802 151.899C592.062 154.609 586.032 174.299 579.262 195.469C572.492 216.639 566.952 235.349 566.952 236.949C566.952 249.869 584.552 255.289 601.042 247.529L601.062 247.539Z" fill="#085036"/>
<path d="M582.101 243.589C577.551 239.039 584.321 221.929 595.151 210.479C604.501 200.629 611.271 200.879 611.271 211.219C611.271 221.189 603.391 237.069 596.011 241.989C591.831 244.699 583.951 245.559 582.101 243.589Z" fill="#085036"/>
<path d="M253.61 250.609C249.55 246.549 249.43 246.179 249.43 236.699C249.43 220.579 255.34 206.669 266.66 196.579C277.37 186.979 290.54 183.659 301.12 187.839C305.18 189.559 307.27 189.689 312.57 188.579C316.14 187.839 319.46 187.719 319.95 188.329C320.57 188.819 319.09 193.009 316.75 197.679C310.97 209.249 304.69 228.939 304.44 236.079C304.19 241.249 304.44 241.859 306.66 241.499C308.01 241.249 311.95 238.549 315.52 235.589C318.97 232.639 322.29 230.169 323.03 230.169C323.65 230.169 324.75 232.389 325.61 234.969C329.06 246.539 345.43 250.849 345.43 240.259C345.43 236.079 343.46 232.999 335.58 224.379C331.64 220.199 327.83 214.779 326.96 212.319C322.65 199.269 334.47 185.859 350.1 185.859C359.95 185.859 370.04 190.909 370.04 195.709C370.04 198.049 363.15 209.249 361.79 209.249C361.17 209.249 359.82 206.419 358.59 203.099C357.36 199.649 355.02 196.079 353.42 194.979C347.39 191.039 340 196.209 343.08 202.239C343.82 203.719 348 208.519 352.19 212.949C360.68 221.809 363.27 227.719 362.28 235.719C361.54 242.859 357.73 247.779 350.1 251.599C338.9 257.259 324.5 255.539 318.47 247.909C316.13 244.959 315.39 244.709 313.67 245.939C301.61 254.429 294.35 256.519 289.05 252.829C286.96 251.349 286.34 249.749 286.34 245.449C286.34 242.499 285.85 240.029 285.11 240.029C284.49 240.029 281.54 242.369 278.71 245.079C273.05 250.619 265.42 254.679 260.74 254.799C259.02 254.799 256.06 253.079 253.6 250.619L253.61 250.609ZM276.01 237.559C282.04 233.739 293.86 213.559 297.92 199.899C298.78 197.189 296.07 193.249 293.61 193.249C287.09 193.249 276.99 202.849 271.95 213.559C268.13 221.929 266.66 235.099 269.12 238.179C271.09 240.519 271.09 240.519 276.01 237.559Z" fill="#085036"/>
<path d="M376.56 252.952C373.73 251.722 372.38 250.122 371.39 246.672C369.79 241.012 371.39 233.872 378.65 212.332C381.36 204.332 383.571 197.192 383.571 196.702C383.571 196.212 380.74 195.722 377.29 195.722C371.38 195.722 371.14 195.602 371.87 193.012C373.22 188.582 374.58 187.842 381.47 187.102L387.87 186.482L392.3 176.022C394.76 170.362 397.47 165.312 398.45 164.822C407.19 160.272 416.79 157.682 416.79 159.652C416.79 160.272 414.57 165.932 411.87 172.202C409.16 178.352 406.95 184.382 406.95 185.372C406.95 186.602 408.55 187.092 413.1 187.092C419.62 187.092 420.12 187.582 417.9 192.512C416.67 195.222 415.56 195.592 409.16 195.962L401.78 196.332L398.21 206.792C390.83 227.962 388.12 238.792 389.84 240.762C391.81 243.102 395.26 241.992 401.41 236.702C405.47 233.252 406.46 231.412 407.81 225.012C409.9 214.552 414.7 205.442 421.84 198.062C428.86 190.802 435.5 187.602 445.84 186.492C457.04 185.142 462.21 188.582 462.33 197.322C462.33 208.402 451.75 217.752 433.41 222.802L426.03 224.892L425.66 230.552C425.29 235.352 425.78 236.832 428.37 239.412C432.55 243.592 438.22 243.352 446.95 238.792C453.84 235.102 458.64 234.112 458.64 236.212C458.64 238.302 446.09 248.892 440.92 251.232C426.15 257.752 414.58 254.922 407.57 243.232C406.46 241.382 405.601 241.752 399.571 246.312C389.481 253.942 382.95 255.792 376.55 252.962L376.56 252.952ZM439.821 211.722C445.111 207.542 448.8 201.632 448.8 197.322C448.8 193.872 448.43 193.262 445.85 193.262C441.3 193.262 435.88 198.552 431.7 207.042C426.53 217.132 426.65 218.362 432.32 216.022C434.66 215.042 438.1 213.072 439.83 211.712L439.821 211.722Z" fill="#085036"/>
<path d="M518.963 252.821C514.283 250.731 507.883 245.191 507.883 243.221C507.883 241.371 516.623 228.941 517.853 228.941C518.343 228.941 519.453 231.281 520.313 234.231C521.913 240.511 525.363 244.451 530.773 246.171C535.693 247.891 539.513 246.171 540.623 241.991C541.603 238.051 539.643 234.731 531.513 225.871C521.543 215.161 519.333 207.901 523.143 199.041C526.713 190.671 535.323 185.871 546.893 185.871C555.873 185.871 564.493 190.921 564.493 196.091C564.493 199.041 558.713 209.261 557.113 209.261C556.493 209.261 555.393 207.041 554.653 204.461C553.303 199.291 547.393 193.261 543.703 193.261C542.473 193.261 540.503 194.241 539.393 195.601C536.193 199.171 538.043 203.721 546.283 212.091C555.263 221.201 557.603 225.511 557.603 233.261C557.723 246.431 547.263 254.801 531.263 254.801C526.833 254.681 521.293 253.821 518.953 252.831L518.963 252.821Z" fill="#085036"/>
<path d="M644.501 252.459C626.041 242.369 636.131 202.369 660.131 190.429C668.011 186.489 680.071 185.139 684.991 187.599C689.671 190.059 692.011 196.579 690.161 202.249C687.451 210.499 674.781 219.359 660.871 222.799C653.981 224.649 652.871 226.249 653.981 233.259C654.841 238.679 658.531 242.489 662.841 242.489C668.131 242.489 676.131 239.289 681.421 235.109C686.961 230.679 687.571 230.559 687.571 234.129C687.571 237.699 678.221 246.559 670.091 250.619C661.471 255.049 650.521 255.789 644.491 252.469L644.501 252.459ZM668.871 210.859C673.551 207.409 678.221 198.309 676.991 195.229C676.621 194.119 674.771 193.259 673.171 193.259C667.881 193.259 659.751 203.719 656.191 215.169C655.331 217.999 655.331 217.999 660.011 216.029C662.591 214.919 666.531 212.709 668.871 210.859Z" fill="#085036"/>
<path d="M468.253 252.579C463.573 252.329 459.883 251.839 459.883 251.469C459.883 250.979 463.203 239.649 467.263 226.239C471.323 212.699 474.643 200.519 474.643 199.159C474.643 196.939 474.153 196.819 469.723 197.559C465.783 198.179 464.803 198.049 464.803 196.579C464.803 195.599 465.543 194.119 466.523 193.379C468.743 191.529 480.303 187.599 486.703 186.489C493.353 185.379 494.083 187.229 491.623 197.689C490.643 201.999 489.903 205.569 490.143 205.569C490.393 205.569 492.723 202.619 495.433 198.919C503.803 187.599 513.653 182.919 518.943 187.719C522.263 190.669 522.023 193.749 518.203 200.399C515.373 205.199 514.633 205.689 511.803 204.949C502.693 202.729 502.323 202.859 498.383 206.919C492.963 212.339 485.953 226.119 481.403 240.399C479.183 246.919 477.223 252.459 476.973 252.709C476.723 252.829 472.793 252.829 468.233 252.589L468.253 252.579Z" fill="#085036"/>
<path d="M695.703 249.75C690.903 244.09 691.393 237.69 698.653 216.15C702.103 206.06 704.802 197.44 704.802 196.83C704.802 196.21 702.343 195.72 699.263 195.72C693.353 195.72 692.373 194.37 694.953 189.44C696.063 187.59 697.663 187.1 702.833 187.1H709.483L713.422 177.01C715.642 171.35 718.103 166.18 718.843 165.44C720.323 163.84 738.043 158.3 738.783 159.16C739.033 159.41 736.813 165.56 733.733 172.82C730.653 180.08 728.192 186.36 728.192 186.6C728.192 186.85 731.513 187.09 735.703 187.09H743.213L740.873 191.15C738.783 194.72 737.923 195.09 731.273 195.7L724.013 196.32L721.182 203.7C716.262 216.13 710.473 237.05 711.333 239.27C711.823 240.38 713.553 241.24 715.393 241.24C718.713 241.24 729.053 235.46 731.883 231.89C733.733 229.8 738.033 229.55 738.033 231.64C738.033 234.22 722.893 248.01 716.863 250.84C713.293 252.44 708.612 253.55 704.922 253.55C699.632 253.55 698.402 253.06 695.692 249.73L695.703 249.75Z" fill="#085036"/>
</svg>
